<svg xmlns="http://www.w3.org/2000/svg" viewBox="0 0 32 32">
  <rect width="32" height="32" rx="7" fill="#0a0a0a"/>
  <g transform="translate(5.000,23.371) scale(0.028351,-0.028351)">
    <path d="M190 -13Q111 -13 63.0 28.0Q15 69 15 143Q15 221 67.0 256.5Q119 292 211 304Q286 313 313.5 324.5Q341 336 341 361Q341 416 271 416Q196 416 188 350H38Q41 426 100.5 476.0Q160 526 270.0 526.0Q380 526 436 484Q501 437 501 338V80Q501 19 519 7V0H361Q351 14 344 57H342Q293 -13 190 -13ZM242 91Q288 91 316.5 116.5Q345 142 345 183V244Q321 232 261 217Q212 206 192.0 191.0Q172 176 172 148Q172 91 242 91Z" fill="#ffffff"/>
    <path d="M32 0V168H203V0Z" transform="translate(541,0)" fill="#c4b5fd"/>
  </g>
</svg>
